<?xml version="1.0" encoding="utf-8"?>
<!-- Generator: Adobe Illustrator 16.0.4, SVG Export Plug-In . SVG Version: 6.00 Build 0)  -->
<!DOCTYPE svg PUBLIC "-//W3C//DTD SVG 1.1//EN" "http://www.w3.org/Graphics/SVG/1.1/DTD/svg11.dtd">
<svg version="1.1"
	 id="Capa_1" shape-rendering="geometricPrecision" image-rendering="optimizeQuality" text-rendering="geometricPrecision"
	 xmlns="http://www.w3.org/2000/svg" xmlns:xlink="http://www.w3.org/1999/xlink" x="0px" y="0px" width="50px" height="50px"
	 viewBox="0 0 300 300" enable-background="new 0 0 300 300" xml:space="preserve">
<path d="M280.577,137.936c-4.72-30.216-18.661-55.154-41.808-74.754c-24.334-21.013-53.983-31.529-88.944-31.529
	c-34.971,0-64.618,10.396-88.94,31.166c-23.158,19.86-36.975,44.901-41.458,75.117c-0.95,4.966-1.427,9.69-1.427,14.187
	c0,19.844,6.494,37.197,19.498,52.087c12.986,14.881,31.297,25.761,54.931,32.591v5.338c0,6.606,2.239,12.162,6.727,16.644
	c4.483,4.493,10.037,6.978,16.653,7.446c6.851,0.479,11.923-0.707,15.233-3.541c5.193,3.771,10.984,5.66,17.367,5.66
	c5.905,0,11.344-1.764,16.297-5.307c3.312,2.59,8.149,3.667,14.534,3.188c6.609-0.707,12.167-3.248,16.652-7.614
	c4.486-4.392,6.728-9.869,6.728-16.476v-3.895c25.51-6.623,45.239-17.721,59.185-33.33C275.268,190.041,282,172.447,282,152.123
	C282,147.626,281.523,142.902,280.577,137.936z M119.352,172.139c-7.09,8.16-15.601,12.223-25.514,12.223
	c-9.92,0-18.426-4.062-25.513-12.223c-7.086-8.149-10.633-18.02-10.633-29.596c0-11.567,3.547-21.435,10.633-29.568
	c7.087-8.147,15.593-12.222,25.513-12.222c9.913,0,18.424,4.075,25.514,12.222c7.09,8.133,10.641,18.001,10.641,29.568
	C129.992,154.119,126.442,163.988,119.352,172.139z M150.175,219.091c-5.907,0-10.277-1.521-13.106-4.548
	c-1.657-1.889-2.477-4.214-2.477-7.025c0-4.428,1.709-8.865,5.135-13.315c3.423-4.427,6.784-6.647,10.098-6.647
	c3.308,0,6.428,2.448,9.386,7.375c2.952,4.901,4.441,9.562,4.441,14.012C163.652,215.719,159.154,219.091,150.175,219.091z
	 M228.314,172.139c-6.971,8.16-15.531,12.223-25.695,12.223c-9.916,0-18.359-4.062-25.328-12.223
	c-6.977-8.149-10.463-18.02-10.463-29.596c0-11.567,3.486-21.435,10.463-29.568c6.969-8.147,15.412-12.222,25.328-12.222
	c10.164,0,18.727,4.075,25.695,12.222c6.963,8.133,10.455,18.001,10.455,29.568C238.77,154.119,235.277,163.988,228.314,172.139z"/>
</svg>
